<svg xmlns="http://www.w3.org/2000/svg" width="25.593" height="25.562" viewBox="0 0 25.593 25.562"
  data-inject-url="https://www.eascs.com/uploads/images/20221027/f5003fede6531547fe445a7dd3cd5809.svg">
  <defs>
    <style>
      .cls-1 {
        fill-rule: evenodd;
        opacity: 0.33;
      }
    </style>
  </defs>
  <path id="形状_579--inject-12" data-name="形状 579" class="cls-1"
    d="M529.014,732.718h-7.879a1.44,1.44,0,0,0-1.432,1.443V742.1a1.441,1.441,0,0,0,1.432,1.444h7.879a1.44,1.44,0,0,0,1.433-1.444v-7.941A1.44,1.44,0,0,0,529.014,732.718Zm0,9.384h-7.879v-7.941h7.879V742.1Zm9.251,16.174h0Zm6.583-8.079-5.571-5.615a1.46,1.46,0,0,0-2.025,0l-5.571,5.615a1.453,1.453,0,0,0,0,2.042l5.571,5.614a1.423,1.423,0,0,0,2.025,0l5.571-5.614A1.453,1.453,0,0,0,544.848,750.2Zm-6.583,6.633-5.57-5.614,5.57-5.614,5.571,5.614Zm-9.251-10.4h-7.879a1.44,1.44,0,0,0-1.432,1.444v7.94a1.441,1.441,0,0,0,1.432,1.444h7.879a1.441,1.441,0,0,0,1.433-1.444v-7.94A1.44,1.44,0,0,0,529.014,746.433Zm0,9.384h-7.879v-7.94h7.879v7.94Zm13.609-23.1h-7.879a1.44,1.44,0,0,0-1.432,1.443V742.1a1.441,1.441,0,0,0,1.432,1.444h7.879a1.44,1.44,0,0,0,1.433-1.444v-7.941A1.44,1.44,0,0,0,542.623,732.718Zm-7.879,9.384v-7.941h7.879l0,7.941h-7.881Z"
    transform="translate(-519.688 -732.719)"></path>
</svg>
