<svg xmlns="http://www.w3.org/2000/svg" width="30.62" height="23.376" viewBox="0 0 30.62 23.376"
  data-inject-url="https://www.eascs.com/uploads/images/20221027/22e90fc3c5b45fd2923d3a83294e990b.svg">
  <defs>
    <style>
      .cls-1 {
        fill-rule: evenodd;
        opacity: 0.33;
      }
    </style>
  </defs>
  <path id="形状_582--inject-15" data-name="形状 582" class="cls-1"
    d="M1492.3,750.3H1504a0.915,0.915,0,0,1,.5.151l4,2.668V739.5h-9.9v-1.8h10.8a0.9,0.9,0,0,1,.9.9v16.2a0.9,0.9,0,0,1-1.4.748l-5.17-3.449H1491.4a0.9,0.9,0,0,1-.9-0.9v-5.4h1.8v4.5Zm-6.03-3.6-5.17,3.45a0.9,0.9,0,0,1-1.25-.252,0.88,0.88,0,0,1-.15-0.5V733.2a0.9,0.9,0,0,1,.9-0.9h18a0.9,0.9,0,0,1,.9.9v12.6a0.9,0.9,0,0,1-.9.9h-12.33Zm-4.77-12.6v13.619l4-2.667a0.9,0.9,0,0,1,.5-0.152h11.7V734.1h-16.2Zm3.6,4.5h9a0.9,0.9,0,1,0,0-1.8h-9A0.9,0.9,0,1,0,1485.1,738.6Zm0,3.6h9a0.9,0.9,0,1,0,0-1.8h-9A0.9,0.9,0,1,0,1485.1,742.2Z"
    transform="translate(-1479.69 -732.312)"></path>
</svg>
