<svg xmlns="http://www.w3.org/2000/svg" width="26.65" height="27.094" viewBox="0 0 26.65 27.094"
  data-inject-url="https://www.eascs.com/uploads/images/20221027/4cdc5b44d07f018ebc897c15bdb48c33.svg">
  <defs>
    <style>
      .cls-1 {
        fill-rule: evenodd;
        opacity: 0.33;
      }
    </style>
  </defs>
  <path id="形状_581--inject-14" data-name="形状 581" class="cls-1"
    d="M1185.31,756.111a1.043,1.043,0,0,1-1.02-1.01,8.225,8.225,0,0,0-16.45,0,1.02,1.02,0,0,1-2.04,0,10.265,10.265,0,0,1,20.53,0A0.993,0.993,0,0,1,1185.31,756.111Zm-9.25-9.158a6.263,6.263,0,1,1,6.33-6.263A6.242,6.242,0,0,1,1176.06,746.953Zm0-10.506a4.243,4.243,0,1,0,4.29,4.243A4.294,4.294,0,0,0,1176.06,736.447Zm-15.36,14.277a1.037,1.037,0,0,1-1.02-1.011,10.032,10.032,0,0,1,7.88-9.9,1.09,1.09,0,0,1,1.3.673,1.074,1.074,0,0,1-.68,1.28h-0.14a8.036,8.036,0,0,0-6.26,7.946A1.146,1.146,0,0,1,1160.7,750.724Zm7.07-9.63a0.882,0.882,0,0,1-.41-0.067,6.248,6.248,0,0,1-3.2-8.284,6.358,6.358,0,0,1,8.37-3.165,6.02,6.02,0,0,1,2.65,2.222,1,1,0,0,1-.27,1.415,1.016,1.016,0,0,1-1.43-.27,4.3,4.3,0,0,0-5.98-1.145,4.217,4.217,0,0,0-1.16,5.926,3.928,3.928,0,0,0,1.84,1.482,1.016,1.016,0,0,1,.54,1.347A1.079,1.079,0,0,1,1167.77,741.094Z"
    transform="translate(-1159.69 -729.031)"></path>
</svg>
