<svg xmlns="http://www.w3.org/2000/svg" width="29.719" height="25.469" viewBox="0 0 29.719 25.469"
  data-inject-url="https://www.eascs.com/uploads/images/20221027/052da87b6149c9aff3acc237fff78703.svg">
  <defs>
    <style>
      .cls-1 {
        fill-rule: evenodd;
        opacity: 0.33;
      }
    </style>
  </defs>
  <path id="形状_580--inject-13" data-name="形状 580" class="cls-1"
    d="M867.476,735.854h-0.034a1.684,1.684,0,0,0-.292-0.017,2.12,2.12,0,0,0-2.029,1.44l-1.685,5.212a2.479,2.479,0,0,0-.877-0.155,3.019,3.019,0,0,0-1.444.378l-5.485,2.914a3.439,3.439,0,0,0-1.186,1.047,3.6,3.6,0,0,0-1.186-1.047l-5.5-2.932a3.029,3.029,0,0,0-1.444-.377,2.479,2.479,0,0,0-.877.155l-1.685-5.212a2.088,2.088,0,0,0-2.029-1.44,1.684,1.684,0,0,0-.292.017H841.4a2.4,2.4,0,0,0-1.874,2.486v0.017l0.24,6.481a5.88,5.88,0,0,0,.963,3.069,10.064,10.064,0,0,0,1.186,1.457l0.018,0.017,3.335,3.206a9.746,9.746,0,0,1,1.616,1.8l1.444,2.331a1.021,1.021,0,0,0,.86.5,1.067,1.067,0,0,0,.55-0.154,0.993,0.993,0,0,0,.327-1.406l-1.5-2.434a11.586,11.586,0,0,0-1.908-2.2l-3.3-3.189a4.95,4.95,0,0,1-1.582-3.172l-0.241-6.481a0.323,0.323,0,0,1,.189-0.36h0.018c0,0.017.017,0.017,0.017,0.034l1.891,5.9,0.1,0.463a3.59,3.59,0,0,0,1.272,2.366,1.736,1.736,0,0,0,.43.4l1.926,1.526a0.974,0.974,0,0,0,1.41-.137,0.956,0.956,0,0,0-.121-1.406l-1.977-1.561a1.412,1.412,0,0,1-.705-0.959,0.386,0.386,0,0,1,.258-0.086,1.076,1.076,0,0,1,.481.137l5.485,2.915a2.857,2.857,0,0,1,1.066,2.348l0.069,3.223v0.018a0.939,0.939,0,0,0,.24.548,1.111,1.111,0,0,0,.619.377l0.155,0.035h0.034l0.155-.035a1.107,1.107,0,0,0,.619-0.377,0.98,0.98,0,0,0,.241-0.548v-0.018l0.069-3.223a2.957,2.957,0,0,1,1.066-2.348l5.467-2.915a1.285,1.285,0,0,1,.5-0.137,0.381,0.381,0,0,1,.257.086,1.523,1.523,0,0,1-.705.959l-1.977,1.561a0.957,0.957,0,0,0-.12,1.406,0.974,0.974,0,0,0,1.41.137l1.925-1.526a1.7,1.7,0,0,0,.43-0.4A3.675,3.675,0,0,0,865,744.2l0.1-.463L867,737.86c0.017-.035.017-0.052,0.034-0.052h0.035a0.312,0.312,0,0,1,.171.36L867,744.649a4.971,4.971,0,0,1-1.565,3.155l-3.3,3.189a11.162,11.162,0,0,0-1.925,2.194l-1.5,2.435a1,1,0,0,0,.344,1.406,1.077,1.077,0,0,0,.55.154,1.019,1.019,0,0,0,.86-0.5l1.444-2.332a9.71,9.71,0,0,1,1.616-1.8l3.318-3.189,0.035-.035a10,10,0,0,0,1.186-1.456,5.991,5.991,0,0,0,.963-3.07l0.24-6.48v-0.035A2.258,2.258,0,0,0,867.476,735.854Zm-13.548,6.618a1.018,1.018,0,0,0,.533.154,0.973,0.973,0,0,0,.533-0.154c0.568-.343,5.468-3.43,5.468-6.875a3.946,3.946,0,0,0-3.989-3.892,4,4,0,0,0-2.029.548,4,4,0,0,0-6.017,3.344C848.461,739.042,853.361,742.129,853.928,742.472Zm-1.5-8.71a1.962,1.962,0,0,1,1.323.515,1.033,1.033,0,0,0,1.393,0,1.963,1.963,0,0,1,1.324-.515A1.881,1.881,0,0,1,858.4,735.6c0,1.56-2.235,3.6-3.937,4.766-1.7-1.166-3.937-3.206-3.937-4.766A1.877,1.877,0,0,1,852.433,733.762Z"
    transform="translate(-839.531 -731.719)"></path>
</svg>
