<svg xmlns="http://www.w3.org/2000/svg" width="127.125" height="392.938" viewBox="0 0 127.125 392.938">
  <defs>
    <style>
      .cls-1 {
        fill: #fff;
        fill-rule: evenodd;
      }
    </style>
  </defs>
  <path id="形状_1" data-name="形状 1" class="cls-1" d="M84.494,65.022c-35.045,0-63.555,29.006-63.555,64.66V237.355c0,35.654,28.51,64.66,63.555,64.66s63.554-29.006,63.554-64.66V129.682C148.048,94.028,119.539,65.022,84.494,65.022Zm47.153,172.333c0,26.453-21.152,47.973-47.153,47.973S37.34,263.808,37.34,237.355V129.682c0-26.453,21.153-47.973,47.153-47.973s47.153,21.52,47.153,47.973V237.355ZM84.492,111.085a8.658,8.658,0,0,0-8.557,8.706v29.382a8.558,8.558,0,1,0,17.114,0V119.791A8.657,8.657,0,0,0,84.492,111.085Zm34.593,248.651a5.384,5.384,0,0,0-3.807,1.569l-30.8,31.325L54.1,361.729a5.459,5.459,0,0,0-4.212-1.993,5.547,5.547,0,0,0-5.488,5.591,5.61,5.61,0,0,0,1.521,3.867L46,369.271l-0.021.008L80.5,404.4a5.51,5.51,0,0,0,3.983,1.676h0.01a5.46,5.46,0,0,0,3.951-1.66L123.057,369.2a5.609,5.609,0,0,0,1.527-3.873A5.55,5.55,0,0,0,119.085,359.736Zm0,51.9a5.385,5.385,0,0,0-3.807,1.57l-30.8,31.325L54.1,413.626a5.463,5.463,0,0,0-4.212-1.993,5.547,5.547,0,0,0-5.488,5.592,5.613,5.613,0,0,0,1.521,3.867L46,421.168l-0.021.008L80.5,456.293a5.513,5.513,0,0,0,3.983,1.675h0.01a5.46,5.46,0,0,0,3.951-1.659L123.057,421.1a5.611,5.611,0,0,0,1.527-3.873A5.551,5.551,0,0,0,119.085,411.633Z" transform="translate(-20.938 -65.031)"/>
</svg>
