<svg xmlns="http://www.w3.org/2000/svg" width="26.438" height="26.406" viewBox="0 0 26.438 26.406"
  data-inject-url="https://www.eascs.com/uploads/images/20221027/6c4880c5bdff25f3ec1e06606652e300.svg">
  <defs>
    <style>
      .cls-1 {
        fill: #fff;
        fill-rule: evenodd;
      }
    </style>
  </defs>
  <path id="形状_576--inject-11" data-name="形状 576" class="cls-1"
    d="M211.825,742.561l-0.9-1.44-4.736,2.947,0.9,1.436Zm-5.639,6.431,4.736-2.945,0.9,1.436-4.736,2.945Zm21.04,7.647H225.09V745.01a0.852,0.852,0,0,0-.248-0.6l-6.828-6.788a0.865,0.865,0,0,0-.846-0.256,0.845,0.845,0,0,0-.369,1.442l6.587,6.553v11.277h-8.537V732.675a0.849,0.849,0,0,0-1.308-.714L203.3,738.436a0.849,0.849,0,0,0-.4.717v17.486l-2.134,0v1.527l23.208,0.02a0.837,0.837,0,0,0,.528,0l0.133-.02,2.588,0v-1.526h0Zm-14.082,0h-8.538v-17.02l8.538-5.4v22.421h0Z"
    transform="translate(-200.781 -731.844)"></path>
</svg>
